<?xml version="1.0" encoding="UTF-8" standalone="no"?>
<!-- Generator: Adobe Illustrator 26.5.0, SVG Export Plug-In . SVG Version: 6.00 Build 0)  -->

<svg
   version="1.1"
   id="Layer_1"
   x="0px"
   y="0px"
   viewBox="0 0 2521 2911"
   style="enable-background:new 0 0 2521 2911;"
   xml:space="preserve"
   sodipodi:docname="tolp.svg"
   inkscape:version="1.3.2 (091e20e, 2023-11-25, custom)"
   inkscape:export-filename="tolp.png"
   inkscape:export-xdpi="9.1392307"
   inkscape:export-ydpi="9.1392307"
   xmlns:inkscape="http://www.inkscape.org/namespaces/inkscape"
   xmlns:sodipodi="http://sodipodi.sourceforge.net/DTD/sodipodi-0.dtd"
   xmlns="http://www.w3.org/2000/svg"
   xmlns:svg="http://www.w3.org/2000/svg"><defs
   id="defs37" /><sodipodi:namedview
   id="namedview37"
   pagecolor="#ffffff"
   bordercolor="#000000"
   borderopacity="0.25"
   inkscape:showpageshadow="2"
   inkscape:pageopacity="0.0"
   inkscape:pagecheckerboard="0"
   inkscape:deskcolor="#d1d1d1"
   inkscape:zoom="0.28546891"
   inkscape:cx="1296.1131"
   inkscape:cy="-1164.7503"
   inkscape:window-width="1920"
   inkscape:window-height="1027"
   inkscape:window-x="-8"
   inkscape:window-y="-8"
   inkscape:window-maximized="1"
   inkscape:current-layer="Layer_1" />
<style
   type="text/css"
   id="style1">
	.st0{fill:#164F86;}
	.st1{fill:#14275B;}
	.st2{fill:#E6B35A;}
	.st3{fill:#FFFFFF;}
	.st4{fill:#BA3224;}
	.st5{fill:#B13728;}
	.st6{fill:#AA3729;}
	.st7{fill:#221819;}
	.st8{opacity:0.1;fill:#1A171B;enable-background:new    ;}
	.st9{opacity:0.94;}
</style>
<g
   id="g37">
	<polygon
   class="st0"
   points="2453.1,765.4 1260.5,76.8 1260.5,76.8 67.6,765.4 67.6,2142.9 1260.5,2831.4 2453.1,2142.9  "
   id="polygon1"
   style="fill:#008000;fill-opacity:1" />
	<path
   class="st1"
   d="M2521,2183.3V727.7l-100.5-58l-953.1-550.3L1260.5,0l-206.9,119.4L100.5,669.7L0,727.7v1455.7l100.5,58   l965.1,557.2l195.2,112.5l195.2-112.5l965.1-557.2L2521,2183.3z M100.5,2128.8V789.1l1160-669.7l0,0l1160,669.7v1339.4l-1160,670   L100.5,2128.8z"
   id="path1"
   style="fill:#000000;fill-opacity:1" />
	<path
   class="st2"
   d="M1258.8,2183l3.1-3.1h-0.7C1260.5,2180.9,1259.5,2182,1258.8,2183z"
   id="path2" />
	<path
   class="st3"
   d="M1022.4,894.1c0-94.7,0-189.4,0-284.1c-0.3-9.9,3.1-19.9,9.9-27.4c5.1-5.1,11.7-8.9,18.9-9.9   c6.9-1,13.7-1.4,20.9-1h249.1c6.9,0,6.9,0,6.9,6.9c0,41.9,0.3,83.4-0.3,125.2c0.3,25,20.6,45.6,45.6,45.6h104.3   c5.5,0,10.6,0,16.1,0c3.1,0,4.5,1,4.1,4.1c0,1.7,0,3.1,0,4.8c0,139.6,0,278.9,0,418.6c0.3,6.5-1,13-3.4,19.2   c-5.8,13.4-16.5,19.6-30.5,20.6c-1,0-2.4,0-3.4,0h-400.7c-6.9,0.3-13.4-1.4-19.6-4.5c-11.7-6.5-16.8-17.2-17.8-29.8   c0-2.1,0-4.1,0-6.2L1022.4,894.1L1022.4,894.1z"
   id="path3" />
	<path
   class="st3"
   d="M1352.4,572.9c48,50.4,96.8,100.2,144.1,151.6c-0.7,2.4-2.7,1.4-4.1,1.4c-38.8,0-77.5,0-116,0   c-3.4,0-6.9-0.3-10.3-1.4c-9.3-2.4-15.8-11-15.4-20.9c0-39.8,0-79.3,0-118.7c0-2.7,0-5.5,0-8.2   C1350.4,575,1351.1,573.6,1352.4,572.9z"
   id="path4" />
	
	
	
	
	
	
	
	
	
	
	
	
	
	
	
	
	
	
	
	
	
	
	
	<g
   id="g48"
   style="display:inline"
   inkscape:label="table"
   transform="translate(87.197507)"><path
     class="st3"
     d="m 919.8,2139.1 c 5.8,0 12,0 17.8,0 h 133.5 c 2.4,0 4.8,0 7.5,0 3.1,0.7 2.7,3.1 2.7,5.5 0,28.1 0,56.6 0,84.7 0,4.8 -2.1,6.9 -6.9,6.9 H 928 c -9.9,0 -10.6,-0.7 -10.6,-10.3 0,-26.1 0,-52.1 0,-77.9 0,-3.4 -0.7,-6.9 2.4,-8.9 z"
     id="path13" /><path
     class="st3"
     d="m 1346.6,2343.6 h -76.9 c -2.4,0 -3.8,-1 -3.8,-3.8 0,-0.3 0,-0.7 0,-1.4 0,-28.5 0,-57 0,-85.4 0,-4.8 0.3,-4.8 4.8,-5.1 H 1420 c 6.9,0 6.9,0 6.9,6.9 v 82.3 c 0,6.2 0,6.2 -6.2,6.2 z"
     id="path14" /><path
     class="st3"
     d="M 1345.9,2234.5 H 1269 c -2.4,0 -3.4,-1.4 -3.1,-3.4 0,-1 0,-2.1 0,-3.1 v -81.7 c 0,-0.7 0,-1.7 0,-2.4 -0.3,-3.1 1,-4.8 4.1,-4.5 1,0 2.1,0 3.1,0 H 1419 c 1.4,0 2.7,0 4.5,0 1.8,0 3.1,1 3.4,2.7 0,0.3 0,0.3 0,0.7 0,1 0,2.1 0,3.1 0,27.1 0,53.9 0,81 0,6.9 1.7,7.5 -7.2,7.5 -24.7,0.1 -49.1,0.1 -73.8,0.1 z"
     id="path15" /><path
     class="st3"
     d="m 920.8,2030 c 1.7,0 3.4,0.3 4.8,0.3 h 146.8 c 1.7,0 3.4,-0.3 4.8,-0.3 3.1,0.3 4.1,2.1 4.1,5.1 0,28.8 0,57.3 0,86.1 0.3,2.7 -1.4,5.5 -4.5,5.8 -0.3,0 -1,0 -1.4,0 h -5.5 -140.5 c -2.1,0 -4.1,0 -6.2,0 -2.7,0 -5.5,-2.1 -5.5,-5.1 v -0.3 c 0,-1.4 0,-2.4 0,-3.8 0,-26.4 0,-52.8 0,-79.3 -0.3,-3 -1,-6.8 3.1,-8.5 z"
     id="path16" /><path
     class="st3"
     d="m 1270.1,2030 c 1.7,0 3.4,0.3 4.8,0.3 h 145.5 c 1.7,0 3.4,-0.3 4.8,-0.3 3.1,0.3 4.1,2.1 4.1,5.1 0,28.8 0,57.3 0,86.1 0,4.5 -2.4,4.8 -5.8,4.8 -23,0 -45.6,0 -68.6,0 -27.4,0 -54.9,0 -82.3,0 -5.1,0 -6.9,-1.7 -6.9,-6.5 0,-27.4 0,-54.9 0,-82.3 0.3,-3.1 -0.1,-6.5 4.4,-7.2 z"
     id="path17" /><path
     class="st3"
     d="m 1095.5,2030 c 1.7,0 3.4,0.3 4.8,0.3 h 145.8 c 1.7,0 3.4,-0.3 4.8,-0.3 4.5,0.7 4.5,4.1 4.5,7.5 0,12.7 0,25 0,37.7 0,14.4 0,28.8 0,43.2 0,6.9 -0.3,7.5 -7.2,7.5 -49.7,0 -99.5,0 -148.9,0 -4.8,0 -6.5,-1.4 -6.5,-6.2 0,-27.8 0,-55.6 0,-83.4 -0.1,-2.5 -0.4,-5.3 2.7,-6.3 z"
     id="path21" /><path
     class="st1"
     d="m 919.5,1920.9 c 0.3,0 0.7,0 1,0 48.7,0 97.8,0 146.5,0 12.7,0 12.7,0 12.7,12.4 v 76.2 c 0,7.5 0,7.5 -7.2,7.5 H 927 c -2.4,-0.3 -4.5,-0.3 -6.9,0.7 h -1 c -2.4,-1 -1.7,-3.4 -1.7,-5.5 v -85.8 c 0,-2.1 -0.3,-4.5 2.1,-5.5 z"
     id="path22"
     style="fill:#000000;fill-opacity:1" /><path
     class="st1"
     d="m 1346.3,2016.3 h -76.9 c -2.1,0 -3.4,-1 -3.4,-3.4 0,-1.4 0,-2.4 0,-3.8 v -80.3 c 0,-1.4 0,-2.4 0,-3.8 0,-2.1 1,-3.1 3.1,-3.1 h 4.5 146.2 c 7.5,0 7.5,0 7.5,7.2 v 79.9 c 0,1.4 0,2.7 0,4.5 0,1.4 -1,2.7 -2.4,2.7 h -0.3 c -1.7,0 -3.4,0 -4.8,0 z"
     id="path23"
     style="fill:#000000;fill-opacity:1" /><path
     class="st1"
     d="m 1172,1921.9 h 72.4 c 1.4,0 2.7,0 4.5,0 2.4,0 3.8,1 3.8,3.8 0,1 0,2.1 0,3.1 v 80.6 c 0,1.4 0,2.4 0,3.8 0,2.4 -1.4,3.4 -3.4,3.4 h -151.6 c -4.5,0 -4.5,-0.3 -4.8,-4.5 0,-5.1 0,-10.3 0,-15.4 v -66.2 c 0,-1.7 0,-3.4 0,-4.8 0,-1.4 1,-3.1 3.1,-3.1 z"
     id="path24"
     style="fill:#000000;fill-opacity:1" /><path
     class="st3"
     d="m 1172.3,2343.6 h -74.8 c -4.5,0 -4.5,0 -4.5,-4.5 0,-10.6 0,-21.6 0,-32.2 0,-17.8 0,-35.3 0,-53.2 0,-5.1 0,-5.1 5.1,-5.1 h 149.2 c 5.8,0 5.8,0 5.8,5.8 0,27.8 0,55.6 0,83.7 0,5.8 0,5.8 -5.8,5.8 h -75.1 v -0.3 z"
     id="path26" /><path
     class="st3"
     d="m 1172.7,2234.5 h -76.9 c -2.1,0 -3.4,-0.7 -3.4,-3.1 0,-1 0,-2.1 0,-3.1 V 2146 c 0,-1 0,-2.1 0,-3.1 0,-2.4 1,-3.4 3.1,-3.4 h 151.6 c 5.1,0 5.5,0.3 5.5,5.1 0,28.1 0,56.6 0,84.7 0,5.1 0,5.1 -5.8,5.1 z"
     id="path27" /><path
     class="st3"
     d="m 917.8,2248.2 h 152.3 c 9.6,0 8.2,0 8.2,8.6 0,26.4 0,52.8 0,79.3 0,1.4 0,2.7 0,4.5 0,2.4 -1,3.4 -3.4,3.4 H 923.2 c -5.8,0 -5.8,0 -5.8,-5.8 0,-8.9 0,-17.8 0,-26.8 0,-18.9 0,-37.4 0,-56.3 0,-2.5 0.4,-4.5 0.4,-6.9 z"
     id="path28" /></g>
	<path
   class="st7"
   d="M1361.7,1721.6c-4.5,3.8-7.2,9.6-7.2,15.4v154h-188v-154c0-5.8-2.7-11.7-7.2-15.4l-433.7-608.6h1070.1   L1361.7,1721.6z"
   id="path29" />
	<path
   class="st1"
   d="M1158.9,1721.6c4.5,3.8,7.2,9.6,7.2,15.4v154h188.4v-154c0-5.8,2.7-11.7,7.2-15.4l433.7-608.6H725.6   L1158.9,1721.6z"
   id="path30"
   style="fill:#000000;fill-opacity:1" />
	<path
   class="st8"
   d="M 1713.7,1112.9 1280,1721.5 c -4.5,3.8 -7.2,9.6 -7.2,15.4 v 24.7 l -106.7,54.9 v 74.8 h 188.4 V 1737 c 0,-5.8 2.7,-11.7 7.2,-15.4 L 1795.4,1113 h -81.7 z"
   id="path31"
   style="display:inline" />
	<g
   class="st9"
   id="g36">
		
		
		
		
		
	</g>
</g><path
   fill-rule="evenodd"
   clip-rule="evenodd"
   d="m 1072.9326,680.51866 c 13.0891,0 23.7001,10.61099 23.7001,23.7001 v 308.10084 h 355.5009 c 13.0896,0 23.7001,10.6105 23.7001,23.7 0,13.0895 -10.6105,23.7001 -23.7001,23.7001 h -379.201 c -13.0891,0 -23.7001,-10.6106 -23.7001,-23.7001 V 704.21876 c 0,-13.08911 10.611,-23.7001 23.7001,-23.7001 z"
   fill="#000000"
   id="path1-2"
   style="display:inline;stroke-width:23.7;image-rendering:auto" />
<text
   xml:space="preserve"
   style="font-size:53.3333px;display:inline;fill:#000000"
   x="952.8183"
   y="2052.7629"
   id="text37"><tspan
     sodipodi:role="line"
     id="tspan37"
     x="0"
     y="0"></tspan></text><text
   xml:space="preserve"
   style="font-size:53.3333px;fill:#000000"
   x="956.32129"
   y="2108.811"
   id="text38"><tspan
     sodipodi:role="line"
     id="tspan38"></tspan></text><path
   style="display:inline;fill:#000000;stroke-width:3.97865"
   d="m 1133.3098,959.99441 c -11.3221,-7.93028 -18.4305,-29.81582 -13.7018,-42.18501 6.018,-15.74119 19.6579,-25.25878 36.1991,-25.25878 17.6623,0 27.1896,6.78303 34.673,24.68569 4.5922,10.98611 4.5502,14.9765 -0.2795,26.53562 -3.1265,7.48274 -9.2992,15.53951 -13.717,17.90389 -11.4906,6.14954 -33.2007,5.30404 -43.1738,-1.68141 z"
   id="path44" /><path
   style="display:inline;fill:#000000;stroke-width:4.1483"
   d="m 1175.9819,860.99905 c -13.4849,-13.48481 -15.4136,-27.55965 -6.2145,-45.34878 5.7632,-11.14483 21.7692,-21.34312 33.4975,-21.34312 20.1142,0 39.4088,21.38105 39.4088,43.67025 0,16.66626 -20.7218,35.14745 -39.4088,35.14745 -11.2217,0 -18.3057,-3.14845 -27.283,-12.1258 z"
   id="path45" /><path
   style="display:inline;fill:#000000;stroke-width:3.96412"
   d="m 1280.4112,914.93449 c -22.2741,-12.34561 -26.4552,-40.41324 -8.6695,-58.19893 15.9926,-15.99253 36.1509,-15.99253 52.1434,0 18.7774,18.77735 14.9631,45.78948 -8.1538,57.74368 -14.0454,7.26313 -22.8329,7.37639 -35.3201,0.45525 z"
   id="path46" /><path
   style="display:inline;fill:#000000;stroke-width:3.96815"
   d="m 1279.3046,819.12047 c -21.7563,-13.49724 -25.1837,-39.36908 -7.551,-57.00171 8.5875,-8.58748 15.3639,-11.5992 26.0982,-11.5992 29.5323,0 48.5421,35.99612 30.6649,58.06578 -14.332,17.69321 -31.6855,21.40819 -49.2121,10.53513 z"
   id="path47" /><path
   style="display:inline;fill:#000000;stroke-width:3.96412"
   d="m 1374.9924,914.93449 c -22.2741,-12.34561 -26.4552,-40.41324 -8.6695,-58.19893 15.9926,-15.99253 36.1509,-15.99253 52.1435,0 18.7773,18.77735 14.963,45.78948 -8.1539,57.74368 -14.0454,7.26313 -22.8328,7.37639 -35.3201,0.45525 z"
   id="path48" /><text
   xml:space="preserve"
   style="font-weight:bold;font-size:566.667px;font-family:'Comic Sans MS';-inkscape-font-specification:'Comic Sans MS Bold';fill:#ffffff"
   x="810.04401"
   y="1591.2509"
   id="text37-1"><tspan
     sodipodi:role="line"
     id="tspan37-1"
     x="810.04401"
     y="1591.2509"
     style="font-style:normal;font-variant:normal;font-weight:normal;font-stretch:normal;font-size:566.667px;font-family:Arial;-inkscape-font-specification:Arial">tolp</tspan></text></svg>
